<svg xmlns="http://www.w3.org/2000/svg" viewBox="0 0 884 1796" width="884" height="1796" style="width: 100%; height: 100%; transform: translate3d(0,0,0);" preserveAspectRatio="xMidYMid meet"><defs><clipPath id="__lottie_element_2"><rect width="884" height="1796" x="0" y="0"></rect></clipPath><clipPath id="__lottie_element_6"><path d="M0,0 L305,0 L305,141 L0,141z"></path></clipPath><clipPath id="__lottie_element_15"><path d="M0,0 L351,0 L351,498 L0,498z"></path></clipPath><clipPath id="__lottie_element_24"><path d="M0,0 L240,0 L240,30 L0,30z"></path></clipPath><clipPath id="__lottie_element_37"><path d="M0,0 L389,0 L389,482 L0,482z"></path></clipPath><linearGradient id="__lottie_element_43" spreadMethod="pad" gradientUnits="userSpaceOnUse" x1="0" y1="13.746000289916992" x2="0" y2="-10.904999732971191"><stop offset="0%" stop-color="rgb(208,106,81)"></stop><stop offset="50%" stop-color="rgb(226,142,118)"></stop><stop offset="100%" stop-color="rgb(244,178,155)"></stop></linearGradient><clipPath id="__lottie_element_48"><path d="M0,0 L155,0 L155,75 L0,75z"></path></clipPath><clipPath id="__lottie_element_52"><path d="M0,0 L155,0 L155,75 L0,75z"></path></clipPath><clipPath id="__lottie_element_53"><path fill="#ffffff" clip-rule="nonzero" d=" M76.48799896240234,35.25 C74.25499725341797,35.10200119018555 71.75,34.5 71,38.23099899291992 C70.3479995727539,41.472999572753906 72.98899841308594,43.9119987487793 76.48799896240234,43.96099853515625 C79.25,44 81.94599914550781,42.75 81.9749984741211,38.98099899291992 C82,35.75 80.25,35.5 76.48799896240234,35.25" fill-opacity="1"></path></clipPath><clipPath id="__lottie_element_137"><path d="M0,0 L69,0 L69,498 L0,498z"></path></clipPath><clipPath id="__lottie_element_147"><path d="M0,0 L354,0 L354,463 L0,463z"></path></clipPath><clipPath id="__lottie_element_172"><path d="M0,0 L354,0 L354,463 L0,463z"></path></clipPath><clipPath id="__lottie_element_197"><path d="M0,0 L398,0 L398,400 L0,400z"></path></clipPath><clipPath id="__lottie_element_216"><path d="M0,0 L448,0 L448,376 L0,376z"></path></clipPath><clipPath id="__lottie_element_238"><path d="M0,0 L446,0 L446,342 L0,342z"></path></clipPath><clipPath id="__lottie_element_260"><path d="M0,0 L536,0 L536,636 L0,636z"></path></clipPath></defs><g clip-path="url(#__lottie_element_2)"><g clip-path="url(#__lottie_element_260)" style="display: block;" transform="matrix(1,0,0,1,182,357.4990234375)" opacity="1"><g style="display: block;" transform="matrix(1,0,0,1,256.5,148.5)" opacity="1"><g opacity="1" transform="matrix(3,0,0,3,0,0)"><path fill="rgb(96,151,125)" fill-opacity="1" d=" M69.5,-14.5 C69.5,-14.5 69.5,14.5 69.5,14.5 C69.5,20.018999099731445 65.01899719238281,24.5 59.5,24.5 C59.5,24.5 -59.5,24.5 -59.5,24.5 C-65.01899719238281,24.5 -69.5,20.018999099731445 -69.5,14.5 C-69.5,14.5 -69.5,-14.5 -69.5,-14.5 C-69.5,-20.018999099731445 -65.01899719238281,-24.5 -59.5,-24.5 C-59.5,-24.5 59.5,-24.5 59.5,-24.5 C65.01899719238281,-24.5 69.5,-20.018999099731445 69.5,-14.5z"></path></g></g><g style="display: block;" transform="matrix(1,0,0,1,256.5,394.5)" opacity="1"><g opacity="1" transform="matrix(3,0,0,3,0,0)"><path fill="rgb(73,113,94)" fill-opacity="1" d=" M69.5,-47.5 C69.5,-53.01900100708008 65.01899719238281,-57.5 59.5,-57.5 C59.5,-57.5 -59.5,-57.5 -59.5,-57.5 C-65.01899719238281,-57.5 -69.5,-53.01900100708008 -69.5,-47.5 C-69.5,-47.5 -69.5,47.5 -69.5,47.5 C-69.5,53.01900100708008 -65.01899719238281,57.5 -59.5,57.5 C-59.5,57.5 59.5,57.5 59.5,57.5 C65.01899719238281,57.5 69.5,53.01900100708008 69.5,47.5 C69.5,47.5 69.5,-47.5 69.5,-47.5z"></path></g></g><g style="display: block;" transform="matrix(1,0,0,1,130.5,148.5)" opacity="1"><g opacity="1" transform="matrix(3,0,0,3,0,0)"><path fill="rgb(119,198,160)" fill-opacity="1" d=" M8.5,-26.5 C8.5,-26.5 8.5,26.5 8.5,26.5 C8.5,28.15570068359375 7.155700206756592,29.5 5.5,29.5 C5.5,29.5 -5.5,29.5 -5.5,29.5 C-7.155700206756592,29.5 -8.5,28.15570068359375 -8.5,26.5 C-8.5,26.5 -8.5,-26.5 -8.5,-26.5 C-8.5,-28.15570068359375 -7.155700206756592,-29.5 -5.5,-29.5 C-5.5,-29.5 5.5,-29.5 5.5,-29.5 C7.155700206756592,-29.5 8.5,-28.15570068359375 8.5,-26.5z"></path></g></g><g style="display: block;" transform="matrix(1,0,0,1,382.5,148.5)" opacity="1"><g opacity="1" transform="matrix(3,0,0,3,0,0)"><path fill="rgb(119,198,160)" fill-opacity="1" d=" M8.5,-26.5 C8.5,-26.5 8.5,26.5 8.5,26.5 C8.5,28.15570068359375 7.155700206756592,29.5 5.5,29.5 C5.5,29.5 -5.5,29.5 -5.5,29.5 C-7.155700206756592,29.5 -8.5,28.15570068359375 -8.5,26.5 C-8.5,26.5 -8.5,-26.5 -8.5,-26.5 C-8.5,-28.15570068359375 -7.155700206756592,-29.5 -5.5,-29.5 C-5.5,-29.5 5.5,-29.5 5.5,-29.5 C7.155700206756592,-29.5 8.5,-28.15570068359375 8.5,-26.5z"></path></g></g></g><g clip-path="url(#__lottie_element_238)" style="display: block;" transform="matrix(1,0,0,1,386.5,1404)" opacity="1"><g style="display: block;" transform="matrix(1,0,0,1,241,285.5)" opacity="1"><g opacity="1" transform="matrix(3,0,0,3,0,0)"><path fill="rgb(0,0,0)" fill-opacity="0.2" d=" M51,0 C51,0 51,0 51,0 C51,1.9316500425338745 49.43164825439453,3.5 47.5,3.5 C47.5,3.5 -47.5,3.5 -47.5,3.5 C-49.43164825439453,3.5 -51,1.9316500425338745 -51,0 C-51,0 -51,0 -51,0 C-51,-1.9316500425338745 -49.43164825439453,-3.5 -47.5,-3.5 C-47.5,-3.5 47.5,-3.5 47.5,-3.5 C49.43164825439453,-3.5 51,-1.9316500425338745 51,0z"></path></g></g><g style="display: block;" transform="matrix(1,0,0,1,232.75,164)" opacity="1"><g opacity="1" transform="matrix(3,0,0,3,0,0)"><path stroke-linecap="round" stroke-linejoin="miter" fill-opacity="0" stroke-miterlimit="4" stroke="rgb(178,105,45)" stroke-opacity="1" stroke-width="28" d=" M25.25,20 C25.25,20 -22.25,20 -22.25,20 C-22.25,20 -25.25,-20 -25.25,-20"></path></g></g><g style="display: block;" transform="matrix(1,0,0,1,244.447998046875,262.9549865722656)" opacity="1"><g opacity="1" transform="matrix(3,0,0,3,0,0)"><path fill="rgb(109,59,19)" fill-opacity="1" d=" M43.14899826049805,5.64900016784668 C43.14899826049805,5.64900016784668 43.14899826049805,-5.283999919891357 43.14899826049805,-5.283999919891357 C43.14899826049805,-6.2779998779296875 42.375999450683594,-7.160999774932861 42.26599884033203,-6.940000057220459 C42.26599884033203,-6.940000057220459 -41.38399887084961,-6.940000057220459 -41.38399887084961,-6.940000057220459 C-42.37699890136719,-6.940000057220459 -43.14899826049805,-6.166999816894531 -43.14899826049805,-5.172999858856201 C-43.14899826049805,-5.172999858856201 -43.14899826049805,5.760000228881836 -43.14899826049805,5.760000228881836 C-43.14899826049805,6.422999858856201 -42.59700012207031,6.973999977111816 -41.935001373291016,6.973999977111816 C-41.935001373291016,6.973999977111816 -39.176998138427734,6.973999977111816 -39.176998138427734,6.973999977111816 C-38.29399871826172,6.973999977111816 -37.520999908447266,6.311999797821045 -37.520999908447266,5.317999839782715 C-37.520999908447266,5.317999839782715 -37.520999908447266,5.0970001220703125 -37.520999908447266,5.0970001220703125 C-37.520999908447266,2.999000072479248 -35.534000396728516,1.2319999933242798 -33.21699905395508,1.6740000247955322 C-31.562000274658203,2.005000114440918 -30.45800018310547,3.549999952316284 -30.45800018310547,5.206999778747559 C-30.45800018310547,5.206999778747559 -30.45800018310547,5.317999839782715 -30.45800018310547,5.317999839782715 C-30.45800018310547,6.201000213623047 -29.79599952697754,6.973999977111816 -28.80299949645996,6.973999977111816 C-28.80299949645996,6.973999977111816 -25.492000579833984,6.973999977111816 -25.492000579833984,6.973999977111816 C-24.608999252319336,6.973999977111816 -23.836999893188477,6.311999797821045 -23.836999893188477,5.317999839782715 C-23.836999893188477,5.317999839782715 -23.836999893188477,5.0970001220703125 -23.836999893188477,5.0970001220703125 C-23.836999893188477,3.1089999675750732 -22.18199920654297,1.4529999494552612 -20.084999084472656,1.562999963760376 C-18.208999633789062,1.6729999780654907 -16.77400016784668,3.440999984741211 -16.77400016784668,5.317999839782715 C-16.77400016784668,6.201000213623047 -16.11199951171875,6.973999977111816 -15.119000434875488,6.973999977111816 C-15.119000434875488,6.973999977111816 -11.807999610900879,6.973999977111816 -11.807999610900879,6.973999977111816 C-10.925000190734863,6.973999977111816 -10.152999877929688,6.311999797821045 -10.152999877929688,5.317999839782715 C-10.152999877929688,5.317999839782715 -10.152999877929688,5.0970001220703125 -10.152999877929688,5.0970001220703125 C-10.152999877929688,3.1089999675750732 -8.498000144958496,1.4529999494552612 -6.401000022888184,1.562999963760376 C-4.525000095367432,1.6729999780654907 -3.0899999141693115,3.440999984741211 -3.0899999141693115,5.317999839782715 C-3.0899999141693115,6.201000213623047 -2.427999973297119,6.973999977111816 -1.434999942779541,6.973999977111816 C-1.434999942779541,6.973999977111816 1.8760000467300415,6.973999977111816 1.8760000467300415,6.973999977111816 C2.759000062942505,6.973999977111816 3.5309998989105225,6.311999797821045 3.5309998989105225,5.317999839782715 C3.5309998989105225,5.317999839782715 3.5309998989105225,5.0970001220703125 3.5309998989105225,5.0970001220703125 C3.5309998989105225,3.1089999675750732 5.186999797821045,1.4529999494552612 7.283999919891357,1.562999963760376 C9.15999984741211,1.6729999780654907 10.593999862670898,3.440999984741211 10.593999862670898,5.317999839782715 C10.593999862670898,6.201000213623047 11.256999969482422,6.973999977111816 12.25,6.973999977111816 C12.25,6.973999977111816 15.5600004196167,6.973999977111816 15.5600004196167,6.973999977111816 C16.44300079345703,6.973999977111816 17.215999603271484,6.311999797821045 17.215999603271484,5.317999839782715 C17.215999603271484,5.317999839782715 17.215999603271484,5.0970001220703125 17.215999603271484,5.0970001220703125 C17.215999603271484,2.999000072479248 19.20199966430664,1.2319999933242798 21.518999099731445,1.6740000247955322 C23.173999786376953,2.005000114440918 24.277999877929688,3.549999952316284 24.277999877929688,5.206999778747559 C24.277999877929688,5.206999778747559 24.277999877929688,5.317999839782715 24.277999877929688,5.317999839782715 C24.277999877929688,6.201000213623047 24.94099998474121,6.973999977111816 25.93400001525879,6.973999977111816 C25.93400001525879,6.973999977111816 29.243999481201172,6.973999977111816 29.243999481201172,6.973999977111816 C30.12700080871582,6.973999977111816 30.899999618530273,6.311999797821045 30.899999618530273,5.317999839782715 C30.899999618530273,5.317999839782715 30.899999618530273,5.0970001220703125 30.899999618530273,5.0970001220703125 C30.899999618530273,2.888000011444092 32.88600158691406,1.121000051498413 35.09299850463867,1.562999963760376 C36.74800109863281,1.784000039100647 37.9630012512207,3.440000057220459 37.9630012512207,5.206999778747559 C37.9630012512207,6.090000152587891 38.625,6.863999843597412 39.61800003051758,6.863999843597412 C39.61800003051758,6.863999843597412 41.935001373291016,6.863999843597412 41.935001373291016,6.863999843597412 C42.59700012207031,6.863999843597412 43.14899826049805,6.311999797821045 43.14899826049805,5.64900016784668z"></path></g></g><g style="display: block;" transform="matrix(1,0,0,1,196.62899780273438,159.2169952392578)" opacity="1"><g opacity="1" transform="matrix(3,0,0,3,0,0)"><path fill="rgb(109,59,19)" fill-opacity="1" d=" M-3.5869998931884766,-3.075000047683716 C-5.283999919891357,-3.075000047683716 -6.659999847412109,-1.6979999542236328 -6.659999847412109,0 C-6.659999847412109,1.6979999542236328 -5.283999919891357,3.075000047683716 -3.5869998931884766,3.075000047683716 C-3.5869998931884766,3.075000047683716 3.5869998931884766,3.075000047683716 3.5869998931884766,3.075000047683716 C5.283999919891357,3.075000047683716 6.659999847412109,1.6979999542236328 6.659999847412109,0 C6.659999847412109,-1.6979999542236328 5.283999919891357,-3.075000047683716 3.5869998931884766,-3.075000047683716 C3.5869998931884766,-3.075000047683716 -3.5869998931884766,-3.075000047683716 -3.5869998931884766,-3.075000047683716z"></path></g></g><g style="display: block;" transform="matrix(1,0,0,1,192.01400756835938,127.39399719238281)" opacity="1"><g opacity="1" transform="matrix(3,0,0,3,0,0)"><path fill="rgb(109,59,19)" fill-opacity="1" d=" M-3.5869998931884766,-3.075000047683716 C-5.283999919891357,-3.075000047683716 -6.659999847412109,-1.6979999542236328 -6.659999847412109,0 C-6.659999847412109,1.6979999542236328 -5.283999919891357,3.075000047683716 -3.5869998931884766,3.075000047683716 C-3.5869998931884766,3.075000047683716 3.5869998931884766,3.075000047683716 3.5869998931884766,3.075000047683716 C5.283999919891357,3.075000047683716 6.659999847412109,1.6979999542236328 6.659999847412109,0 C6.659999847412109,-1.6979999542236328 5.283999919891357,-3.075000047683716 3.5869998931884766,-3.075000047683716 C3.5869998931884766,-3.075000047683716 -3.5869998931884766,-3.075000047683716 -3.5869998931884766,-3.075000047683716z"></path></g></g><g style="display: block;" transform="matrix(1,0,0,1,310,192.5)" opacity="1"><g opacity="1" transform="matrix(3,0,0,3,0,0)"><path fill="rgb(178,105,45)" fill-opacity="1" d=" M0,-16.5 C-9.940999984741211,-16.5 -18,-8.440999984741211 -18,1.5 C-18,1.5 -18,16.5 -18,16.5 C-18,16.5 18,16.5 18,16.5 C18,16.5 18,1.5 18,1.5 C18,-8.440999984741211 9.940999984741211,-16.5 0,-16.5z"></path></g></g></g><g clip-path="url(#__lottie_element_216)" style="display: block;" transform="matrix(-1,0,0,1,470.5,1391)" opacity="1"><g style="display: block;" transform="matrix(1,0,0,1,237,301.5)" opacity="1"><g opacity="1" transform="matrix(3,0,0,3,0,0)"><path fill="rgb(0,0,0)" fill-opacity="0.2" d=" M51,0 C51,0 51,0 51,0 C51,1.9316500425338745 49.43164825439453,3.5 47.5,3.5 C47.5,3.5 -47.5,3.5 -47.5,3.5 C-49.43164825439453,3.5 -51,1.9316500425338745 -51,0 C-51,0 -51,0 -51,0 C-51,-1.9316500425338745 -49.43164825439453,-3.5 -47.5,-3.5 C-47.5,-3.5 47.5,-3.5 47.5,-3.5 C49.43164825439453,-3.5 51,-1.9316500425338745 51,0z"></path></g></g><g style="display: block;" transform="matrix(1,0,0,1,228.75,180)" opacity="1"><g opacity="1" transform="matrix(3,0,0,3,0,0)"><path stroke-linecap="round" stroke-linejoin="miter" fill-opacity="0" stroke-miterlimit="4" stroke="rgb(178,105,45)" stroke-opacity="1" stroke-width="28" d=" M25.25,20 C25.25,20 -22.25,20 -22.25,20 C-22.25,20 -22.91699981689453,-20 -22.91699981689453,-20"></path></g></g><g style="display: block;" transform="matrix(-1,0,0,1,306,208.5)" opacity="1"><g opacity="1" transform="matrix(3,0,0,3,0,0)"><path fill="rgb(178,105,45)" fill-opacity="1" d=" M0,-16.5 C9.940999984741211,-16.5 18,-8.440999984741211 18,1.5 C18,1.5 18,16.5 18,16.5 C18,16.5 -18,16.5 -18,16.5 C-18,16.5 -18,1.5 -18,1.5 C-18,-8.440999984741211 -9.940999984741211,-16.5 0,-16.5z"></path></g></g><g style="display: block;" transform="matrix(1,0,0,1,240.447998046875,278.9549865722656)" opacity="1"><g opacity="1" transform="matrix(3,0,0,3,0,0)"><path fill="rgb(109,59,19)" fill-opacity="1" d=" M43.14899826049805,5.64900016784668 C43.14899826049805,5.64900016784668 43.14899826049805,-5.283999919891357 43.14899826049805,-5.283999919891357 C43.14899826049805,-6.2779998779296875 42.375999450683594,-7.160999774932861 42.26599884033203,-6.940000057220459 C42.26599884033203,-6.940000057220459 -41.38399887084961,-6.940000057220459 -41.38399887084961,-6.940000057220459 C-42.37699890136719,-6.940000057220459 -43.14899826049805,-6.166999816894531 -43.14899826049805,-5.172999858856201 C-43.14899826049805,-5.172999858856201 -43.14899826049805,5.760000228881836 -43.14899826049805,5.760000228881836 C-43.14899826049805,6.422999858856201 -42.59700012207031,6.973999977111816 -41.935001373291016,6.973999977111816 C-41.935001373291016,6.973999977111816 -39.176998138427734,6.973999977111816 -39.176998138427734,6.973999977111816 C-38.29399871826172,6.973999977111816 -37.520999908447266,6.311999797821045 -37.520999908447266,5.317999839782715 C-37.520999908447266,5.317999839782715 -37.520999908447266,5.0970001220703125 -37.520999908447266,5.0970001220703125 C-37.520999908447266,2.999000072479248 -35.534000396728516,1.2319999933242798 -33.21699905395508,1.6740000247955322 C-31.562000274658203,2.005000114440918 -30.45800018310547,3.549999952316284 -30.45800018310547,5.206999778747559 C-30.45800018310547,5.206999778747559 -30.45800018310547,5.317999839782715 -30.45800018310547,5.317999839782715 C-30.45800018310547,6.201000213623047 -29.79599952697754,6.973999977111816 -28.80299949645996,6.973999977111816 C-28.80299949645996,6.973999977111816 -25.492000579833984,6.973999977111816 -25.492000579833984,6.973999977111816 C-24.608999252319336,6.973999977111816 -23.836999893188477,6.311999797821045 -23.836999893188477,5.317999839782715 C-23.836999893188477,5.317999839782715 -23.836999893188477,5.0970001220703125 -23.836999893188477,5.0970001220703125 C-23.836999893188477,3.1089999675750732 -22.18199920654297,1.4529999494552612 -20.084999084472656,1.562999963760376 C-18.208999633789062,1.6729999780654907 -16.77400016784668,3.440999984741211 -16.77400016784668,5.317999839782715 C-16.77400016784668,6.201000213623047 -16.11199951171875,6.973999977111816 -15.119000434875488,6.973999977111816 C-15.119000434875488,6.973999977111816 -11.807999610900879,6.973999977111816 -11.807999610900879,6.973999977111816 C-10.925000190734863,6.973999977111816 -10.152999877929688,6.311999797821045 -10.152999877929688,5.317999839782715 C-10.152999877929688,5.317999839782715 -10.152999877929688,5.0970001220703125 -10.152999877929688,5.0970001220703125 C-10.152999877929688,3.1089999675750732 -8.498000144958496,1.4529999494552612 -6.401000022888184,1.562999963760376 C-4.525000095367432,1.6729999780654907 -3.0899999141693115,3.440999984741211 -3.0899999141693115,5.317999839782715 C-3.0899999141693115,6.201000213623047 -2.427999973297119,6.973999977111816 -1.434999942779541,6.973999977111816 C-1.434999942779541,6.973999977111816 1.8760000467300415,6.973999977111816 1.8760000467300415,6.973999977111816 C2.759000062942505,6.973999977111816 3.5309998989105225,6.311999797821045 3.5309998989105225,5.317999839782715 C3.5309998989105225,5.317999839782715 3.5309998989105225,5.0970001220703125 3.5309998989105225,5.0970001220703125 C3.5309998989105225,3.1089999675750732 5.186999797821045,1.4529999494552612 7.283999919891357,1.562999963760376 C9.15999984741211,1.6729999780654907 10.593999862670898,3.440999984741211 10.593999862670898,5.317999839782715 C10.593999862670898,6.201000213623047 11.256999969482422,6.973999977111816 12.25,6.973999977111816 C12.25,6.973999977111816 15.5600004196167,6.973999977111816 15.5600004196167,6.973999977111816 C16.44300079345703,6.973999977111816 17.215999603271484,6.311999797821045 17.215999603271484,5.317999839782715 C17.215999603271484,5.317999839782715 17.215999603271484,5.0970001220703125 17.215999603271484,5.0970001220703125 C17.215999603271484,2.999000072479248 19.20199966430664,1.2319999933242798 21.518999099731445,1.6740000247955322 C23.173999786376953,2.005000114440918 24.277999877929688,3.549999952316284 24.277999877929688,5.206999778747559 C24.277999877929688,5.206999778747559 24.277999877929688,5.317999839782715 24.277999877929688,5.317999839782715 C24.277999877929688,6.201000213623047 24.94099998474121,6.973999977111816 25.93400001525879,6.973999977111816 C25.93400001525879,6.973999977111816 29.243999481201172,6.973999977111816 29.243999481201172,6.973999977111816 C30.12700080871582,6.973999977111816 30.899999618530273,6.311999797821045 30.899999618530273,5.317999839782715 C30.899999618530273,5.317999839782715 30.899999618530273,5.0970001220703125 30.899999618530273,5.0970001220703125 C30.899999618530273,2.888000011444092 32.88600158691406,1.121000051498413 35.09299850463867,1.562999963760376 C36.74800109863281,1.784000039100647 37.9630012512207,3.440000057220459 37.9630012512207,5.206999778747559 C37.9630012512207,6.090000152587891 38.625,6.863999843597412 39.61800003051758,6.863999843597412 C39.61800003051758,6.863999843597412 41.935001373291016,6.863999843597412 41.935001373291016,6.863999843597412 C42.59700012207031,6.863999843597412 43.14899826049805,6.311999797821045 43.14899826049805,5.64900016784668z"></path></g></g><g style="display: block;" transform="matrix(1,0,0,1,188.01400756835938,143.3939971923828)" opacity="1"><g opacity="1" transform="matrix(3,0,0,3,0,0)"><path fill="rgb(109,59,19)" fill-opacity="1" d=" M-3.5869998931884766,-3.075000047683716 C-5.283999919891357,-3.075000047683716 -6.659999847412109,-1.6979999542236328 -6.659999847412109,0 C-6.659999847412109,1.6979999542236328 -5.283999919891357,3.075000047683716 -3.5869998931884766,3.075000047683716 C-3.5869998931884766,3.075000047683716 3.5869998931884766,3.075000047683716 3.5869998931884766,3.075000047683716 C5.283999919891357,3.075000047683716 6.659999847412109,1.6979999542236328 6.659999847412109,0 C6.659999847412109,-1.6979999542236328 5.283999919891357,-3.075000047683716 3.5869998931884766,-3.075000047683716 C3.5869998931884766,-3.075000047683716 -3.5869998931884766,-3.075000047683716 -3.5869998931884766,-3.075000047683716z"></path></g></g><g style="display: block;" transform="matrix(1,0,0,1,192.62899780273438,175.2169952392578)" opacity="1"><g opacity="1" transform="matrix(3,0,0,3,0,0)"><path fill="rgb(109,59,19)" fill-opacity="1" d=" M-3.5869998931884766,-3.075000047683716 C-5.283999919891357,-3.075000047683716 -6.659999847412109,-1.6979999542236328 -6.659999847412109,0 C-6.659999847412109,1.6979999542236328 -5.283999919891357,3.075000047683716 -3.5869998931884766,3.075000047683716 C-3.5869998931884766,3.075000047683716 3.5869998931884766,3.075000047683716 3.5869998931884766,3.075000047683716 C5.283999919891357,3.075000047683716 6.659999847412109,1.6979999542236328 6.659999847412109,0 C6.659999847412109,-1.6979999542236328 5.283999919891357,-3.075000047683716 3.5869998931884766,-3.075000047683716 C3.5869998931884766,-3.075000047683716 -3.5869998931884766,-3.075000047683716 -3.5869998931884766,-3.075000047683716z"></path></g></g></g><g style="display: block;" transform="matrix(-1,0,0,1,536.25,1207.5)" opacity="1"><g opacity="1" transform="matrix(3,0,0,3,0,0)"><path stroke-linecap="butt" stroke-linejoin="miter" fill-opacity="0" stroke-miterlimit="4" stroke="rgb(39,49,68)" stroke-opacity="1" stroke-width="46" d=" M7.25,-99 C7.25,-99 -5.75,-0.5 -5.75,-0.5 C-5.75,-0.5 -7.25,99 -7.25,99"></path></g></g><g style="display: block;" transform="matrix(1,0,0,1,339.75,1207)" opacity="1"><g opacity="1" transform="matrix(3,0,0,3,0,0)"><path stroke-linecap="butt" stroke-linejoin="miter" fill-opacity="0" stroke-miterlimit="4" stroke="rgb(39,49,68)" stroke-opacity="1" stroke-width="46" d=" M7.25,-99 C7.25,-99 -7.583000183105469,6.5 -7.583000183105469,6.5 C-7.583000183105469,6.5 -7.25,99 -7.25,99"></path></g></g><g clip-path="url(#__lottie_element_6)" style="display: block;" transform="matrix(1,0,0,1,287.25,969)" opacity="1"><g style="display: block;" transform="matrix(1,0,0,1,152.25,70.5)" opacity="1"><g opacity="1" transform="matrix(3,0,0,3,0,0)"></g></g><g style="display: block;" transform="matrix(1,0,0,1,152.25,70.5)" opacity="1"><g opacity="1" transform="matrix(3,0,0,3,0,0)"><path fill="rgb(39,49,68)" fill-opacity="1" d=" M47.75,-23.5 C47.75,-23.5 -47.279998779296875,-23.5 -47.279998779296875,-23.5 C-47.279998779296875,-23.5 -50.75,23.5 -50.75,23.5 C-50.75,23.5 50.75,23 50.75,23 C50.75,23 47.75,-23.5 47.75,-23.5z"></path></g></g></g><g clip-path="url(#__lottie_element_15)" style="display: block;" transform="matrix(1,0,0,1,265,504)" opacity="1"><g style="display: block;" transform="matrix(1,0,0,1,175.5,249)" opacity="1"><g opacity="1" transform="matrix(3,0,0,3,0,0)"></g></g><g style="display: block;" transform="matrix(1,0,0,1,175.5,249)" opacity="1"><g opacity="1" transform="matrix(3,0,0,3,0,0)"><path fill="rgb(255,90,90)" fill-opacity="1" d=" M-38.5,-83 C-49.54600143432617,-83 -58.5,-74.0459976196289 -58.5,-63 C-58.5,-63 -58.5,70 -58.5,70 C-58.5,77.18000030517578 -52.68000030517578,83 -45.5,83 C-45.5,83 45.5,83 45.5,83 C52.68000030517578,83 58.5,77.18000030517578 58.5,70 C58.5,70 58.5,-63 58.5,-63 C58.5,-74.0459976196289 49.54600143432617,-83 38.5,-83 C38.5,-83 -38.5,-83 -38.5,-83z"></path></g></g></g><g clip-path="url(#__lottie_element_197)" style="display: block;" transform="matrix(1,0,0,1,232.5,106.5)" opacity="1"><g style="display: block;" transform="matrix(-1,0,0,1,92.5,84.5)" opacity="1"><g opacity="1" transform="matrix(3,0,0,3,0,0)"><path fill="rgb(255,90,90)" fill-opacity="1" d=" M0,-15 C8.278499603271484,-15 15,-8.278499603271484 15,0 C15,8.278499603271484 8.278499603271484,15 0,15 C-8.278499603271484,15 -15,8.278499603271484 -15,0 C-15,-8.278499603271484 -8.278499603271484,-15 0,-15z"></path></g></g><g style="display: block;" transform="matrix(1,0,0,1,167.5,162.5)" opacity="1"><g opacity="1" transform="matrix(3,0,0,3,0,0)"><path fill="rgb(111,229,236)" fill-opacity="1" d=" M0,-41 C22.627899169921875,-41 41,-22.627899169921875 41,0 C41,22.627899169921875 22.627899169921875,41 0,41 C-22.627899169921875,41 -41,22.627899169921875 -41,0 C-41,-22.627899169921875 -22.627899169921875,-41 0,-41z"></path></g></g><g style="display: block;" transform="matrix(1,0,0,1,203.5,210.5)" opacity="1"><g opacity="1" transform="matrix(3,0,0,3,0,0)"><path fill="rgb(74,166,172)" fill-opacity="1" d=" M0,-50 C27.594999313354492,-50 50,-27.594999313354492 50,0 C50,27.594999313354492 27.594999313354492,50 0,50 C-27.594999313354492,50 -50,27.594999313354492 -50,0 C-50,-27.594999313354492 -27.594999313354492,-50 0,-50z"></path></g></g></g><g clip-path="url(#__lottie_element_172)" style="display: block;" transform="matrix(1,0,0,1,121.031005859375,433.91796875)" opacity="1"><g style="display: block;" transform="matrix(1,0,0,1,177.11599731445312,231.58200073242188)" opacity="1"><g opacity="1" transform="matrix(3,0,0,3,0,0)"></g></g><g style="display: block;" transform="matrix(1,0,0,1,133.77699279785156,259.2099914550781)" opacity="1"><g opacity="1" transform="matrix(3,0,0,3,0,0)"><path stroke-linecap="round" stroke-linejoin="miter" fill-opacity="0" stroke-miterlimit="4" stroke="rgb(244,178,155)" stroke-opacity="1" stroke-width="32" d=" M-12.25,29.75 C-12.25,29.75 12.25,-29.75 12.25,-29.75"></path></g></g><g style="display: block;" transform="matrix(1,0,0,1,162.11099243164062,204.69400024414062)" opacity="1"><g opacity="1" transform="matrix(3,0,0,3,0,0)"><path fill="rgb(255,90,90)" fill-opacity="1" d=" M27.757999420166016,-32.28499984741211 C39.97200012207031,-22.097000122070312 41.6150016784668,-3.937000036239624 31.427000045776367,8.277000427246094 C31.427000045776367,8.277000427246094 7.11899995803833,37.42100143432617 7.11899995803833,37.42100143432617 C5.5960001945495605,39.24700164794922 2.880000114440918,39.492000579833984 1.0540000200271606,37.96900177001953 C1.0540000200271606,37.96900177001953 -36.5629997253418,6.5929999351501465 -36.5629997253418,6.5929999351501465 C-38.388999938964844,5.070000171661377 -38.6349983215332,2.3529999256134033 -37.11199951171875,0.5270000100135803 C-37.11199951171875,0.5270000100135803 -12.803999900817871,-28.615999221801758 -12.803999900817871,-28.615999221801758 C-2.615999937057495,-40.83000183105469 15.543999671936035,-42.472999572753906 27.757999420166016,-32.28499984741211z"></path></g></g><g style="display: block;" transform="matrix(1,0,0,1,168.80299377441406,247.91400146484375)" opacity="1"><g opacity="1" transform="matrix(1,0,0,1,0,0)"></g><g opacity="1" transform="matrix(3,0,0,3,0,0)"><path stroke-linecap="round" stroke-linejoin="miter" fill-opacity="0" stroke-miterlimit="4" stroke="rgb(39,49,68)" stroke-opacity="1" stroke-width="20" d=" M-10.73900032043457,54.25 C20.461000442504883,18.649999618530273 10.928000450134277,-32.91699981689453 2.260999917984009,-54.25"></path></g></g><g style="display: block;" transform="matrix(1,0,0,1,127.0270004272461,295.9599914550781)" opacity="1"><g opacity="1" transform="matrix(1,0,0,1,0,0)"></g><g opacity="1" transform="matrix(3,0,0,3,0,0)"><path stroke-linecap="round" stroke-linejoin="miter" fill-opacity="0" stroke-miterlimit="4" stroke="rgb(244,178,155)" stroke-opacity="1" stroke-width="32" d=" M9.5,-18 C9.5,-18 -9.5,18 -9.5,18"></path></g></g><g style="display: block;" transform="matrix(-1,0,0,1,177.9429931640625,219.28599548339844)" opacity="1"><g opacity="1" transform="matrix(3,0,0,3,0,0)"><path fill="rgb(244,178,155)" fill-opacity="1" d=" M-6.5,-19.5 C-13.680000305175781,-19.5 -19.5,-13.680000305175781 -19.5,-6.5 C-19.5,-6.5 -19.5,6.5 -19.5,6.5 C-19.5,13.680000305175781 -13.680000305175781,19.5 -6.5,19.5 C-6.5,19.5 6.5,19.5 6.5,19.5 C13.680000305175781,19.5 19.5,13.680000305175781 19.5,6.5 C19.5,6.5 19.5,-6.5 19.5,-6.5 C19.5,-13.680000305175781 13.680000305175781,-19.5 6.5,-19.5 C6.5,-19.5 -6.5,-19.5 -6.5,-19.5z"></path></g></g><g style="display: block;" transform="matrix(-1,0,0,1,214.02699279785156,184.9600067138672)" opacity="1"><g opacity="1" transform="matrix(3,0,0,3,0,0)"><path fill="rgb(244,178,155)" fill-opacity="1" d=" M12.5,0 C12.5,0 12.5,0 12.5,0 C12.5,4.415200233459473 8.915200233459473,8 4.5,8 C4.5,8 -4.5,8 -4.5,8 C-8.915200233459473,8 -12.5,4.415200233459473 -12.5,0 C-12.5,0 -12.5,0 -12.5,0 C-12.5,-4.415200233459473 -8.915200233459473,-8 -4.5,-8 C-4.5,-8 4.5,-8 4.5,-8 C8.915200233459473,-8 12.5,-4.415200233459473 12.5,0z"></path></g></g></g><g clip-path="url(#__lottie_element_147)" style="display: block;" transform="matrix(-1,0,0,1,757.031005859375,434.0050048828125)" opacity="1"><g style="display: block;" transform="matrix(-1,0,0,1,177.03199768066406,231.4949951171875)" opacity="1"><g opacity="1" transform="matrix(3,0,0,3,0,0)"></g></g><g style="display: block;" transform="matrix(-1,0,0,1,133.6929931640625,259.0360107421875)" opacity="1"><g opacity="1" transform="matrix(3,0,0,3,0,0)"><path stroke-linecap="round" stroke-linejoin="miter" fill-opacity="0" stroke-miterlimit="4" stroke="rgb(244,178,155)" stroke-opacity="1" stroke-width="32" d=" M12.25,29.75 C12.25,29.75 -12.25,-29.75 -12.25,-29.75"></path></g></g><g style="display: block;" transform="matrix(-1,0,0,1,161.88499450683594,204.66099548339844)" opacity="1"><g opacity="1" transform="matrix(3,0,0,3,0,0)"><path fill="rgb(255,90,90)" fill-opacity="1" d=" M-28.83300018310547,-31.44099998474121 C-40.64799880981445,-20.792999267578125 -41.595001220703125,-2.5829999446868896 -30.94700050354004,9.232000350952148 C-30.94700050354004,9.232000350952148 -5.540999889373779,37.42300033569336 -5.540999889373779,37.42300033569336 C-3.9489998817443848,39.189998626708984 -1.2269999980926514,39.33100128173828 0.5400000214576721,37.73899841308594 C0.5400000214576721,37.73899841308594 36.92900085449219,4.946000099182129 36.92900085449219,4.946000099182129 C38.69599914550781,3.3540000915527344 38.83700180053711,0.6320000290870667 37.244998931884766,-1.1349999904632568 C37.244998931884766,-1.1349999904632568 11.84000015258789,-29.32699966430664 11.84000015258789,-29.32699966430664 C1.1920000314712524,-41.141998291015625 -17.01799964904785,-42.0890007019043 -28.83300018310547,-31.44099998474121z"></path></g></g><g style="display: block;" transform="matrix(1,0,0,1,168.718994140625,247.73899841308594)" opacity="1"><g opacity="1" transform="matrix(3,0,0,3,0,0)"><path stroke-linecap="round" stroke-linejoin="miter" fill-opacity="0" stroke-miterlimit="4" stroke="rgb(39,49,68)" stroke-opacity="1" stroke-width="20" d=" M-10.73900032043457,54.25 C20.461000442504883,18.649999618530273 10.928000450134277,-32.91699981689453 2.260999917984009,-54.25"></path></g></g><g style="display: block;" transform="matrix(-1,0,0,1,126.9429931640625,295.7860107421875)" opacity="1"><g opacity="1" transform="matrix(3,0,0,3,0,0)"><path stroke-linecap="round" stroke-linejoin="miter" fill-opacity="0" stroke-miterlimit="4" stroke="rgb(244,178,155)" stroke-opacity="1" stroke-width="32" d=" M-9.5,-18 C-9.5,-18 9.5,18 9.5,18"></path></g></g><g style="display: block;" transform="matrix(-1,0,0,1,177.9429931640625,219.28599548339844)" opacity="1"><g opacity="1" transform="matrix(3,0,0,3,0,0)"><path fill="rgb(244,178,155)" fill-opacity="1" d=" M19.5,-6.5 C19.5,-6.5 19.5,6.5 19.5,6.5 C19.5,13.674699783325195 13.674699783325195,19.5 6.5,19.5 C6.5,19.5 -6.5,19.5 -6.5,19.5 C-13.674699783325195,19.5 -19.5,13.674699783325195 -19.5,6.5 C-19.5,6.5 -19.5,-6.5 -19.5,-6.5 C-19.5,-13.674699783325195 -13.674699783325195,-19.5 -6.5,-19.5 C-6.5,-19.5 6.5,-19.5 6.5,-19.5 C13.674699783325195,-19.5 19.5,-13.674699783325195 19.5,-6.5z"></path></g></g><g style="display: block;" transform="matrix(-1,0,0,1,213.9429931640625,184.78599548339844)" opacity="1"><g opacity="1" transform="matrix(3,0,0,3,0,0)"><path fill="rgb(244,178,155)" fill-opacity="1" d=" M12.5,0 C12.5,0 12.5,0 12.5,0 C12.5,4.415200233459473 8.915200233459473,8 4.5,8 C4.5,8 -4.5,8 -4.5,8 C-8.915200233459473,8 -12.5,4.415200233459473 -12.5,0 C-12.5,0 -12.5,0 -12.5,0 C-12.5,-4.415200233459473 -8.915200233459473,-8 -4.5,-8 C-4.5,-8 4.5,-8 4.5,-8 C8.915200233459473,-8 12.5,-4.415200233459473 12.5,0z"></path></g></g></g><g clip-path="url(#__lottie_element_137)" style="display: block;" transform="matrix(1,0,0,1,406,504)" opacity="1"><g style="display: block;" transform="matrix(1,0,0,1,34.5,249)" opacity="1"><g opacity="1" transform="matrix(3,0,0,3,0,0)"></g></g><g style="display: block;" transform="matrix(1,0,0,1,34.5,249)" opacity="1"><g opacity="1" transform="matrix(3,0,0,3,0,0)"><path fill="rgb(255,255,255)" fill-opacity="1" d=" M11.5,-83 C11.5,-83 -11.5,-83 -11.5,-83 C-11.5,-83 -11.5,83 -11.5,83 C-11.5,83 11.5,83 11.5,83 C11.5,83 11.5,-83 11.5,-83z"></path></g></g></g><g style="display: block;" transform="matrix(0.75,0,0,0.5699999928474426,450.87701416015625,802.0400390625)" opacity="0.25"><g opacity="1" transform="matrix(1,0,0,1,-14.699999809265137,-424.4230041503906)"><path fill="rgb(0,0,0)" fill-opacity="1" d=" M0,-78.44049835205078 C77.52014923095703,-78.44049835205078 140.4604949951172,-43.29130935668945 140.4604949951172,0 C140.4604949951172,43.29130935668945 77.52014923095703,78.44049835205078 0,78.44049835205078 C-77.52014923095703,78.44049835205078 -140.4604949951172,43.29130935668945 -140.4604949951172,0 C-140.4604949951172,-43.29130935668945 -77.52014923095703,-78.44049835205078 0,-78.44049835205078z"></path></g></g><g clip-path="url(#__lottie_element_37)" style="display: block;" transform="matrix(1,0,0,1,241.2030029296875,115.926025390625)" opacity="1"><g style="display: block;" transform="matrix(1,0,0,1,194.60400390625,240.92599487304688)" opacity="1"><g opacity="1" transform="matrix(3,0,0,3,0,0)"></g></g><g style="display: block;" transform="matrix(1,0,0,1,338.33099365234375,250.33099365234375)" opacity="1"><g opacity="1" transform="matrix(2.7030720710754395,1.3013075590133667,-1.3013075590133667,2.7030720710754395,0,0)"><path fill="rgb(244,178,155)" fill-opacity="1" d=" M0,-15.88599967956543 C6.166930675506592,-15.88599967956543 11.173999786376953,-8.76748275756836 11.173999786376953,0 C11.173999786376953,8.76748275756836 6.166930675506592,15.88599967956543 0,15.88599967956543 C-6.166930675506592,15.88599967956543 -11.173999786376953,8.76748275756836 -11.173999786376953,0 C-11.173999786376953,-8.76748275756836 -6.166930675506592,-15.88599967956543 0,-15.88599967956543z"></path></g></g><g style="display: block;" transform="matrix(1,0,0,1,334.6719970703125,254.18899536132812)" opacity="1"><g opacity="1" transform="matrix(2.7030720710754395,1.3013075590133667,-1.3013075590133667,2.7030720710754395,0,0)"><path fill="rgb(235,138,114)" fill-opacity="1" d=" M0,-12.690999984741211 C4.926811218261719,-12.690999984741211 8.927000045776367,-7.004162788391113 8.927000045776367,0 C8.927000045776367,7.004162788391113 4.926811218261719,12.690999984741211 0,12.690999984741211 C-4.926811218261719,12.690999984741211 -8.927000045776367,7.004162788391113 -8.927000045776367,0 C-8.927000045776367,-7.004162788391113 -4.926811218261719,-12.690999984741211 0,-12.690999984741211z"></path></g></g><g style="display: block;" transform="matrix(1,0,0,1,56.19900131225586,260.55999755859375)" opacity="1"><g opacity="1" transform="matrix(2.312474012374878,-1.911142110824585,1.911142110824585,2.312474012374878,0,0)"><path fill="rgb(244,178,155)" fill-opacity="1" d=" M0,-15.88599967956543 C6.166930675506592,-15.88599967956543 11.173999786376953,-8.76748275756836 11.173999786376953,0 C11.173999786376953,8.76748275756836 6.166930675506592,15.88599967956543 0,15.88599967956543 C-6.166930675506592,15.88599967956543 -11.173999786376953,8.76748275756836 -11.173999786376953,0 C-11.173999786376953,-8.76748275756836 -6.166930675506592,-15.88599967956543 0,-15.88599967956543z"></path></g></g><g style="display: block;" transform="matrix(1,0,0,1,61.461002349853516,266.92498779296875)" opacity="1"><g opacity="1" transform="matrix(2.312474012374878,-1.911142110824585,1.911142110824585,2.312474012374878,0,0)"><path fill="rgb(235,138,114)" fill-opacity="1" d=" M0,-13.133500099182129 C5.098452091217041,-13.133500099182129 9.23799991607666,-7.248378753662109 9.23799991607666,0 C9.23799991607666,7.248378753662109 5.098452091217041,13.133500099182129 0,13.133500099182129 C-5.098452091217041,13.133500099182129 -9.23799991607666,7.248378753662109 -9.23799991607666,0 C-9.23799991607666,-7.248378753662109 -5.098452091217041,-13.133500099182129 0,-13.133500099182129z"></path></g></g><g style="display: block;" transform="matrix(1,0,0,1,194.1540069580078,177.33299255371094)" opacity="1"><g opacity="1" transform="matrix(2.9758095741271973,-0.38020703196525574,0.38020703196525574,2.9758095741271973,0,0)"><path fill="rgb(105,42,42)" fill-opacity="1" d=" M-24.975000381469727,-22.996000289916992 C-40.67499923706055,-16.422000885009766 -47.766998291015625,1.8819999694824219 -40.595001220703125,17.31800079345703 C-40.595001220703125,17.31800079345703 -34.01100158691406,31.486000061035156 -34.01100158691406,31.486000061035156 C-34.01100158691406,31.486000061035156 31.898000717163086,33.30799865722656 31.898000717163086,33.30799865722656 C31.898000717163086,33.30799865722656 39.2859992980957,20.67300033569336 39.2859992980957,20.67300033569336 C48.332000732421875,5.203000068664551 41.8849983215332,-14.694999694824219 25.486000061035156,-21.922000885009766 C25.486000061035156,-21.922000885009766 -0.3490000069141388,-33.30799865722656 -0.3490000069141388,-33.30799865722656 C-0.3490000069141388,-33.30799865722656 -24.975000381469727,-22.996000289916992 -24.975000381469727,-22.996000289916992z"></path></g></g><g style="display: block;" transform="matrix(1,0,0,1,197.96099853515625,265.8890075683594)" opacity="1"><g opacity="1" transform="matrix(2.998223304748535,0.10323329269886017,-0.10323329269886017,2.998223304748535,0,0)"><path fill="rgb(244,178,155)" fill-opacity="1" d=" M0,39.62799835205078 C22.17099952697754,39.62799835205078 40.14500045776367,29.608999252319336 40.14500045776367,4.974999904632568 C40.14500045776367,-19.659000396728516 22.17099952697754,-39.62799835205078 0,-39.62799835205078 C-22.17099952697754,-39.62799835205078 -40.14500045776367,-19.659000396728516 -40.14500045776367,4.974999904632568 C-40.14500045776367,29.608999252319336 -22.17099952697754,39.62799835205078 0,39.62799835205078z"></path></g></g><g style="display: block;" transform="matrix(1,0,0,1,141.24000549316406,239.91600036621094)" opacity="1"><g opacity="1" transform="matrix(3,0,0,3,0,0)"><path fill="rgb(247,205,193)" fill-opacity="1" d=" M-7.493000030517578,5.173999786376953 C-6.9029998779296875,22.312999725341797 4.063000202178955,30.4060001373291 18.500999450683594,32.02199935913086 C17.20599937438965,32.15800094604492 15.88599967956543,32.24800109863281 14.545999526977539,32.29399871826172 C-3.5269999504089355,32.91600036621094 -18.45800018310547,25.253999710083008 -19.149999618530273,5.173999786376953 C-19.841999053955078,-14.906000137329102 -5.751999855041504,-31.68899917602539 12.321000099182129,-32.31100082397461 C14.661999702453613,-32.391998291015625 16.954999923706055,-32.196998596191406 19.174999237060547,-31.753999710083008 C3.4749999046325684,-28.621999740600586 -8.121999740600586,-13.088000297546387 -7.493000030517578,5.173999786376953z"></path></g></g><g style="display: block;" transform="matrix(1,0,0,1,231.73199462890625,116.25100708007812)" opacity="1"><g opacity="1" transform="matrix(2.672567844390869,-1.3628578186035156,1.3628578186035156,2.672567844390869,0,0)"><path fill="rgb(105,42,42)" fill-opacity="1" d=" M0,-23.754499435424805 C21.367361068725586,-23.754499435424805 38.715999603271484,-13.110108375549316 38.715999603271484,0 C38.715999603271484,13.110108375549316 21.367361068725586,23.754499435424805 0,23.754499435424805 C-21.367361068725586,23.754499435424805 -38.715999603271484,13.110108375549316 -38.715999603271484,0 C-38.715999603271484,-13.110108375549316 -21.367361068725586,-23.754499435424805 0,-23.754499435424805z"></path></g></g><g style="display: block;" transform="matrix(1,0,0,1,245.5679931640625,117.26400756835938)" opacity="1"><g opacity="1" transform="matrix(3,0,0,3,0,0)"><path fill="rgb(81,31,31)" fill-opacity="1" d=" M14.857999801635742,-20.990999221801758 C20.81800079345703,-9.303999900817871 10.206999778747559,8.045000076293945 -8.840999603271484,17.759000778198242 C-16.780000686645508,21.80699920654297 -24.930999755859375,23.889999389648438 -32.17100143432617,24.097000122070312 C-23.131000518798828,29.406999588012695 -7.797999858856201,28.613000869750977 6.814000129699707,21.16200065612793 C25.86199951171875,11.447999954223633 36.47200012207031,-5.901000022888184 30.511999130249023,-17.58799934387207 C27.035999298095703,-24.40399932861328 18.691999435424805,-27.788999557495117 8.560999870300293,-27.5 C11.305999755859375,-25.88800048828125 13.470000267028809,-23.71299934387207 14.857999801635742,-20.990999221801758z"></path></g></g><g style="display: block;" transform="matrix(1,0,0,1,187.71499633789062,108.82000732421875)" opacity="1"><g opacity="1" transform="matrix(2.891993999481201,0.7977283596992493,-0.7977283596992493,2.891993999481201,0,0)"><path fill="rgb(105,42,42)" fill-opacity="1" d=" M-2.9079999923706055,18.819000244140625 C3.7660000324249268,23.17300033569336 12.817999839782715,22.204999923706055 21.253999710083008,17.15999984741211 C10.78499984741211,28.67799949645996 -3.3489999771118164,33.11399841308594 -12.755000114440918,26.97800064086914 C-23.743000030517578,19.809999465942383 -24.125999450683594,0.9319999814033508 -13.611000061035156,-15.189000129699707 C-9.482999801635742,-21.51799964904785 -4.285999774932861,-26.481000900268555 1.1649999618530273,-29.740999221801758 C-0.5960000157356262,-27.804000854492188 -2.250999927520752,-25.667999267578125 -3.765000104904175,-23.347999572753906 C-14.279999732971191,-7.2270002365112305 -13.895999908447266,11.651000022888184 -2.9079999923706055,18.819000244140625z"></path></g></g><g style="display: block;" transform="matrix(1,0,0,1,198.0590057373047,306.2760009765625)" opacity="1"><g opacity="1" transform="matrix(3,0,0,3,0,0)"><path fill="rgb(105,42,42)" fill-opacity="1" d=" M-39.47600173950195,-38.11399841308594 C-39.47600173950195,-38.11399841308594 -41.516998291015625,-38.11399841308594 -41.516998291015625,-38.11399841308594 C-41.516998291015625,-38.11399841308594 -41.516998291015625,-1.8860000371932983 -41.516998291015625,-1.8860000371932983 C-41.516998291015625,20.204999923706055 -23.607999801635742,38.11399841308594 -1.5169999599456787,38.11399841308594 C-1.5169999599456787,38.11399841308594 1.5169999599456787,38.11399841308594 1.5169999599456787,38.11399841308594 C23.607999801635742,38.11399841308594 41.516998291015625,20.204999923706055 41.516998291015625,-1.8860000371932983 C41.516998291015625,-1.8860000371932983 41.516998291015625,-38.11399841308594 41.516998291015625,-38.11399841308594 C41.516998291015625,-38.11399841308594 38.79499816894531,-38.11399841308594 38.79499816894531,-38.11399841308594 C38.79499816894531,-38.11399841308594 34.744998931884766,-7.4730000495910645 34.744998931884766,-7.4730000495910645 C34.36899948120117,-4.627999782562256 31.54800033569336,-2.7869999408721924 28.79199981689453,-3.5869998931884766 C23.792999267578125,-5.039000034332275 18.461000442504883,-4.867000102996826 13.5649995803833,-3.0969998836517334 C13.5649995803833,-3.0969998836517334 11.746000289916992,-2.440000057220459 11.746000289916992,-2.440000057220459 C5.034999847412109,-0.014000000432133675 -2.312999963760376,-0.014000000432133675 -9.02400016784668,-2.440000057220459 C-9.02400016784668,-2.440000057220459 -9.430999755859375,-2.5869998931884766 -9.430999755859375,-2.5869998931884766 C-15.265999794006348,-4.696000099182129 -21.591999053955078,-5.048999786376953 -27.625999450683594,-3.6019999980926514 C-31.070999145507812,-2.7760000228881836 -34.48500061035156,-5.074999809265137 -35.013999938964844,-8.57800006866455 C-35.013999938964844,-8.57800006866455 -39.47600173950195,-38.11399841308594 -39.47600173950195,-38.11399841308594z"></path></g></g><g style="display: block;" transform="matrix(1,0,0,1,161.96900939941406,405.08599853515625)" opacity="1"><g opacity="1" transform="matrix(2.679572820663452,-1.3490327596664429,1.3490327596664429,2.679572820663452,0,0)"><path fill="rgb(105,42,42)" fill-opacity="1" d=" M0,-19.50749969482422 C9.015009880065918,-19.50749969482422 16.33449935913086,-10.766188621520996 16.33449935913086,0 C16.33449935913086,10.766188621520996 9.015009880065918,19.50749969482422 0,19.50749969482422 C-9.015009880065918,19.50749969482422 -16.33449935913086,10.766188621520996 -16.33449935913086,0 C-16.33449935913086,-10.766188621520996 -9.015009880065918,-19.50749969482422 0,-19.50749969482422z"></path></g></g><g style="display: block;" transform="matrix(1,0,0,1,164.9010009765625,432.5369873046875)" opacity="1"><g opacity="1" transform="matrix(3,0,0,3,0,0)"><path fill="rgb(132,61,61)" fill-opacity="1" d=" M4.126999855041504,4.067999839782715 C10.743000030517578,2.4769999980926514 15.253000259399414,-3.7179999351501465 15.98900032043457,-11.161999702453613 C18.25,-0.8510000109672546 13.20199966430664,9.081999778747559 4.559999942779541,11.15999984741211 C-4.210999965667725,13.269000053405762 -13.36299991607666,6.486999988555908 -15.881999969482422,-3.98799991607666 C-16.500999450683594,-6.561999797821045 -16.66200065612793,-9.119999885559082 -16.422000885009766,-11.545000076293945 C-16.38800048828125,-11.390999794006348 -16.351999282836914,-11.236000061035156 -16.315000534057617,-11.081000328063965 C-13.795999526977539,-0.6060000061988831 -4.644000053405762,6.177000045776367 4.126999855041504,4.067999839782715z"></path></g></g><g style="display: block;" transform="matrix(1,0,0,1,201.07901000976562,375.20098876953125)" opacity="1"><g opacity="1" transform="matrix(3,0,0,3,0,0)"><path fill="rgb(105,42,42)" fill-opacity="1" d=" M18.35300064086914,17.888999938964844 C10.668000221252441,13.201000213623047 9.324000358581543,1.3910000324249268 15.35200023651123,-8.48900032043457 C21.3799991607666,-18.368999481201172 32.494998931884766,-22.57699966430664 40.18000030517578,-17.888999938964844 C47.8650016784668,-13.201000213623047 49.20899963378906,-1.3910000324249268 43.180999755859375,8.48900032043457 C37.15299987792969,18.368999481201172 26.038000106811523,22.57699966430664 18.35300064086914,17.888999938964844z M-18.35300064086914,17.888999938964844 C-10.668000221252441,13.201000213623047 -9.324000358581543,1.3910000324249268 -15.35200023651123,-8.48900032043457 C-21.3799991607666,-18.368999481201172 -32.494998931884766,-22.57699966430664 -40.18000030517578,-17.888999938964844 C-47.8650016784668,-13.201000213623047 -49.20899963378906,-1.3910000324249268 -43.180999755859375,8.48900032043457 C-37.15299987792969,18.368999481201172 -26.038000106811523,22.57699966430664 -18.35300064086914,17.888999938964844z"></path></g></g><g style="display: block;" transform="matrix(1,0,0,1,289.05401611328125,397.3280029296875)" opacity="1"><g opacity="1" transform="matrix(3,0,0,3,0,0)"><path fill="rgb(132,61,61)" fill-opacity="1" d=" M-14.739999771118164,3.9860000610351562 C-15.713000297546387,3.3919999599456787 -16.600000381469727,2.703000068664551 -17.399999618530273,1.9299999475479126 C-16.461000442504883,5.65500020980835 -14.369999885559082,8.803000450134277 -11.197999954223633,10.73799991607666 C-3.513000011444092,15.425999641418457 7.6020002365112305,11.218000411987305 13.630000114440918,1.3380000591278076 C16.4060001373291,-3.2119998931884766 17.618000030517578,-8.170999526977539 17.368000030517578,-12.654999732971191 C16.68000030517578,-10.795999526977539 15.791999816894531,-8.951000213623047 14.699000358581543,-7.159999847412109 C7.552000045776367,4.554999828338623 -5.627999782562256,9.545000076293945 -14.739999771118164,3.9860000610351562z"></path></g></g><g style="display: block;" transform="matrix(1,0,0,1,221.260009765625,406.3160095214844)" opacity="1"><g opacity="1" transform="matrix(1.9993631839752197,-2.2366373538970947,2.2366373538970947,1.9993631839752197,0,0)"><path fill="rgb(105,42,42)" fill-opacity="1" d=" M0,-19.50749969482422 C9.015009880065918,-19.50749969482422 16.33449935913086,-10.766188621520996 16.33449935913086,0 C16.33449935913086,10.766188621520996 9.015009880065918,19.50749969482422 0,19.50749969482422 C-9.015009880065918,19.50749969482422 -16.33449935913086,10.766188621520996 -16.33449935913086,0 C-16.33449935913086,-10.766188621520996 -9.015009880065918,-19.50749969482422 0,-19.50749969482422z"></path></g></g><g style="display: block;" transform="matrix(1,0,0,1,109.37600708007812,401.92901611328125)" opacity="1"><g opacity="1" transform="matrix(3,0,0,3,0,0)"><path fill="rgb(132,61,61)" fill-opacity="1" d=" M-3.561000108718872,6.74399995803833 C0.16099999845027924,10.489999771118164 6.086999893188477,10.982000350952148 11.319999694824219,8.468999862670898 C5.394999980926514,14.12600040435791 -3.2279999256134033,14.782999992370605 -8.08899974822998,9.890000343322754 C-13.02299976348877,4.923999786376953 -12.21500015258789,-3.878000020980835 -6.284999847412109,-9.770999908447266 C-4.828000068664551,-11.218000411987305 -3.197999954223633,-12.355999946594238 -1.49399995803833,-13.173999786376953 C-1.5829999446868896,-13.08899974822998 -1.6699999570846558,-13.003999710083008 -1.7569999694824219,-12.916999816894531 C-7.686999797821045,-7.02400016784668 -8.494999885559082,1.777999997138977 -3.561000108718872,6.74399995803833z"></path></g></g><g style="display: block;" transform="matrix(1,0,0,1,226.4029998779297,426.69598388671875)" opacity="1"><g opacity="1" transform="matrix(3,0,0,3,0,0)"><path fill="rgb(132,61,61)" fill-opacity="1" d=" M6.638000011444092,4.619999885559082 C12.715999603271484,1.559999942779541 15.692000389099121,-5.500999927520752 14.708000183105469,-12.916000366210938 C19.264999389648438,-3.3940000534057617 16.618999481201172,7.428999900817871 8.680000305175781,11.425999641418457 C0.6230000257492065,15.482999801635742 -9.836999893188477,10.970000267028809 -14.682000160217285,1.347000002861023 C-15.873000144958496,-1.0190000534057617 -16.614999771118164,-3.4730000495910645 -16.934999465942383,-5.889999866485596 C-16.865999221801758,-5.745999813079834 -16.79599952697754,-5.6020002365112305 -16.724000930786133,-5.459000110626221 C-11.878999710083008,4.164000034332275 -1.4190000295639038,8.677000045776367 6.638000011444092,4.619999885559082z"></path></g></g><g style="display: block;" transform="matrix(1,0,0,1,253.18800354003906,253.18800354003906)" opacity="1"><g opacity="1" transform="matrix(3,0,0,3,0,0)"><path fill="rgb(62,42,39)" fill-opacity="1" d=" M0,-4.083499908447266 C2.253683567047119,-4.083499908447266 4.083499908447266,-2.253683567047119 4.083499908447266,0 C4.083499908447266,2.253683567047119 2.253683567047119,4.083499908447266 0,4.083499908447266 C-2.253683567047119,4.083499908447266 -4.083499908447266,2.253683567047119 -4.083499908447266,0 C-4.083499908447266,-2.253683567047119 -2.253683567047119,-4.083499908447266 0,-4.083499908447266z"></path></g></g><g style="display: block;" transform="matrix(-1,0,0,1,142.9290008544922,253.18800354003906)" opacity="1"><g opacity="1" transform="matrix(3,0,0,3,0,0)"><path fill="rgb(62,42,39)" fill-opacity="1" d=" M0,-4.083499908447266 C2.253683567047119,-4.083499908447266 4.083499908447266,-2.253683567047119 4.083499908447266,0 C4.083499908447266,2.253683567047119 2.253683567047119,4.083499908447266 0,4.083499908447266 C-2.253683567047119,4.083499908447266 -4.083499908447266,2.253683567047119 -4.083499908447266,0 C-4.083499908447266,-2.253683567047119 -2.253683567047119,-4.083499908447266 0,-4.083499908447266z"></path></g></g><g style="display: block;" transform="matrix(1,0,0,1,263.0780029296875,217.92599487304688)" opacity="1"><g opacity="1" transform="matrix(2.9743072986602783,0.39178621768951416,-0.39178621768951416,2.9743072986602783,0,0)"><path fill="rgb(105,42,42)" fill-opacity="1" d=" M-7.763000011444092,-3.249000072479248 C-9.097000122070312,-3.249000072479248 -10.199000358581543,-2.2070000171661377 -10.27299976348877,-0.875 C-10.27299976348877,-0.875 -10.27299976348877,-0.875 -10.27299976348877,-0.875 C-10.347999572753906,0.47099998593330383 -9.348999977111816,1.6360000371932983 -8.008000373840332,1.7669999599456787 C-8.008000373840332,1.7669999599456787 6.985000133514404,3.234999895095825 6.985000133514404,3.234999895095825 C8.74899959564209,3.4079999923706055 10.277000427246094,2.0209999084472656 10.277000427246094,0.24899999797344208 C10.277000427246094,0.24899999797344208 10.277000427246094,-0.24899999797344208 10.277000427246094,-0.24899999797344208 C10.277000427246094,-1.906000018119812 8.934000015258789,-3.249000072479248 7.2769999504089355,-3.249000072479248 C7.2769999504089355,-3.249000072479248 -7.763000011444092,-3.249000072479248 -7.763000011444092,-3.249000072479248z"></path></g></g><g style="display: block;" transform="matrix(-1,0,0,1,135.468994140625,218.09300231933594)" opacity="1"><g opacity="1" transform="matrix(2.9743072986602783,0.39178621768951416,-0.39178621768951416,2.9743072986602783,0,0)"><path fill="rgb(105,42,42)" fill-opacity="1" d=" M-7.763000011444092,-3.249000072479248 C-9.097000122070312,-3.249000072479248 -10.199000358581543,-2.2070000171661377 -10.27299976348877,-0.875 C-10.27299976348877,-0.875 -10.27299976348877,-0.875 -10.27299976348877,-0.875 C-10.347999572753906,0.47099998593330383 -9.348999977111816,1.6360000371932983 -8.008000373840332,1.7669999599456787 C-8.008000373840332,1.7669999599456787 6.985000133514404,3.234999895095825 6.985000133514404,3.234999895095825 C8.74899959564209,3.4079999923706055 10.277000427246094,2.0209999084472656 10.277000427246094,0.24899999797344208 C10.277000427246094,0.24899999797344208 10.277000427246094,-0.24899999797344208 10.277000427246094,-0.24899999797344208 C10.277000427246094,-1.906000018119812 8.934000015258789,-3.249000072479248 7.2769999504089355,-3.249000072479248 C7.2769999504089355,-3.249000072479248 -7.763000011444092,-3.249000072479248 -7.763000011444092,-3.249000072479248z"></path></g></g><g clip-path="url(#__lottie_element_48)" style="display: block;" transform="matrix(1,0,0,1,122.09199523925781,263.24200439453125)" opacity="1"><g clip-path="url(#__lottie_element_52)" style="display: block;" transform="matrix(1,0,0,1,0,0)" opacity="1"><g clip-path="url(#__lottie_element_53)"><g style="display: block;" transform="matrix(1,0,0,1,77.59200286865234,37.742000579833984)" opacity="1"><g opacity="1" transform="matrix(3,0,0,3,0,0)"><path fill="rgb(164,54,48)" fill-opacity="1" d=" M-15.817000389099121,-12.366999626159668 C-20.957000732421875,-13.553000450134277 -25.86400032043457,-9.649999618530273 -25.86400032043457,-4.375 C-25.86400032043457,-4.375 -25.86400032043457,-4.375 -25.86400032043457,-4.375 C-25.86400032043457,0.9570000171661377 -22.76300048828125,5.802999973297119 -17.922000885009766,8.038000106811523 C-17.922000885009766,8.038000106811523 -15.642999649047852,9.08899974822998 -15.642999649047852,9.08899974822998 C-5.310999870300293,13.857999801635742 6.616000175476074,13.736000061035156 16.847999572753906,8.758000373840332 C16.847999572753906,8.758000373840332 18.145999908447266,8.126999855041504 18.145999908447266,8.126999855041504 C22.868000030517578,5.829999923706055 25.86400032043457,1.0399999618530273 25.86400032043457,-4.210999965667725 C25.86400032043457,-9.545000076293945 20.868999481201172,-13.470999717712402 15.685999870300293,-12.210000038146973 C15.685999870300293,-12.210000038146973 15.12600040435791,-12.074000358581543 15.12600040435791,-12.074000358581543 C5.626999855041504,-9.763999938964844 -4.28000020980835,-9.704999923706055 -13.805000305175781,-11.902999877929688 C-13.805000305175781,-11.902999877929688 -15.817000389099121,-12.366999626159668 -15.817000389099121,-12.366999626159668z"></path></g></g><g style="display: block;" transform="matrix(1,0,0,1,78,49.5)" opacity="1"><g opacity="1" transform="matrix(3,0,0,3,0,0)"><path fill="rgb(203,102,90)" fill-opacity="1" d=" M0,-6.5 C8.830400466918945,-6.5 16,-3.5873498916625977 16,0 C16,3.5873498916625977 8.830400466918945,6.5 0,6.5 C-8.830400466918945,6.5 -16,3.5873498916625977 -16,0 C-16,-3.5873498916625977 -8.830400466918945,-6.5 0,-6.5z"></path></g></g><g style="display: block;" transform="matrix(1,0,0,1,77.59200286865234,23.895999908447266)" opacity="1"><g opacity="1" transform="matrix(3,0,0,3,0,0)"><path fill="rgb(255,255,255)" fill-opacity="1" d=" M-16.017000198364258,-5.739999771118164 C-16.902000427246094,-5.869999885559082 -17.69700050354004,-5.184000015258789 -17.69700050354004,-4.289000034332275 C-17.69700050354004,-4.289000034332275 -17.69700050354004,-3.3570001125335693 -17.69700050354004,-3.3570001125335693 C-17.69700050354004,-0.004000000189989805 -15.486000061035156,2.947000026702881 -12.269000053405762,3.8910000324249268 C-12.269000053405762,3.8910000324249268 -11.723999977111816,4.051000118255615 -11.723999977111816,4.051000118255615 C-3.7739999294281006,6.382999897003174 4.686999797821045,6.322000026702881 12.60200023651123,3.875 C15.630999565124512,2.938999891281128 17.69700050354004,0.13699999451637268 17.69700050354004,-3.0329999923706055 C17.69700050354004,-3.0329999923706055 17.69700050354004,-4.257999897003174 17.69700050354004,-4.257999897003174 C17.69700050354004,-5.166999816894531 16.88599967956543,-5.861000061035156 15.98799991607666,-5.7220001220703125 C15.98799991607666,-5.7220001220703125 13.635000228881836,-5.359000205993652 13.635000228881836,-5.359000205993652 C4.90500020980835,-4.010000228881836 -3.9779999256134033,-3.9749999046325684 -12.718999862670898,-5.256999969482422 C-12.718999862670898,-5.256999969482422 -16.017000198364258,-5.739999771118164 -16.017000198364258,-5.739999771118164z"></path></g></g></g></g></g><g style="display: block;" transform="matrix(1,0,0,1,199.39999389648438,302.7869873046875)" opacity="1"><g opacity="1" transform="matrix(3,0,0,3,0,0)"><path fill="rgb(132,61,61)" fill-opacity="1" d=" M-22.9689998626709,-6.375999927520752 C-24.433000564575195,-6.118000030517578 -25.5,-4.84499979019165 -25.5,-3.3589999675750732 C-25.5,-3.3589999675750732 -25.5,-3.3589999675750732 -25.5,-3.3589999675750732 C-25.5,5.211999893188477 -17.76099967956543,11.706000328063965 -9.319999694824219,10.215999603271484 C-9.319999694824219,10.215999603271484 -1.6790000200271606,8.866999626159668 -1.6790000200271606,8.866999626159668 C-0.5680000185966492,8.670999526977539 0.5680000185966492,8.670999526977539 1.6790000200271606,8.866999626159668 C1.6790000200271606,8.866999626159668 9.319999694824219,10.215999603271484 9.319999694824219,10.215999603271484 C17.76099967956543,11.706000328063965 25.5,5.211999893188477 25.5,-3.3589999675750732 C25.5,-4.84499979019165 24.433000564575195,-6.118000030517578 22.9689998626709,-6.375999927520752 C22.9689998626709,-6.375999927520752 0,-10.428999900817871 0,-10.428999900817871 C0,-10.428999900817871 -22.9689998626709,-6.375999927520752 -22.9689998626709,-6.375999927520752z"></path></g></g><g style="display: block;" transform="matrix(1,0,0,1,198.0570068359375,261.4010009765625)" opacity="1"><g opacity="1" transform="matrix(3,0,0,3,0,0)"><path fill="url(#__lottie_element_43)" fill-opacity="1" d=" M-5.159999847412109,-10.904999732971191 C-5.159999847412109,-10.904999732971191 5.158999919891357,-10.904999732971191 5.158999919891357,-10.904999732971191 C5.158999919891357,-10.904999732971191 5.158999919891357,-2.305999994277954 5.158999919891357,-2.305999994277954 C5.158999919891357,-2.305999994277954 6.614999771118164,-2.305999994277954 6.614999771118164,-2.305999994277954 C9.927000045776367,-2.305999994277954 12.612000465393066,0.3799999952316284 12.612000465393066,3.691999912261963 C12.612000465393066,6.540999889373779 10.607000350952148,8.996000289916992 7.815999984741211,9.567000389099121 C7.815999984741211,9.567000389099121 2.5269999504089355,10.64900016784668 2.5269999504089355,10.64900016784668 C0.859000027179718,10.989999771118164 -0.859000027179718,10.989999771118164 -2.5269999504089355,10.64900016784668 C-2.5269999504089355,10.64900016784668 -7.815999984741211,9.567000389099121 -7.815999984741211,9.567000389099121 C-10.607000350952148,8.996000289916992 -12.612000465393066,6.540999889373779 -12.612000465393066,3.691999912261963 C-12.612000465393066,0.3799999952316284 -9.927000045776367,-2.305999994277954 -6.614999771118164,-2.305999994277954 C-6.614999771118164,-2.305999994277954 -5.159999847412109,-2.305999994277954 -5.159999847412109,-2.305999994277954 C-5.159999847412109,-2.305999994277954 -5.159999847412109,-10.904999732971191 -5.159999847412109,-10.904999732971191z"></path></g></g></g><g clip-path="url(#__lottie_element_24)" style="display: block;" transform="matrix(1,0,0,1,319,1034.6209716796875)" opacity="1"><g style="display: block;" transform="matrix(1,0,0,1,120,15)" opacity="1"><g opacity="1" transform="matrix(3,0,0,3,0,0)"></g></g><g style="display: block;" transform="matrix(1,0,0,1,15,15)" opacity="1"><g opacity="1" transform="matrix(3,0,0,3,0,0)"><path fill="rgb(255,204,75)" fill-opacity="1" d=" M0,-5 C2.759500026702881,-5 5,-2.759500026702881 5,0 C5,2.759500026702881 2.759500026702881,5 0,5 C-2.759500026702881,5 -5,2.759500026702881 -5,0 C-5,-2.759500026702881 -2.759500026702881,-5 0,-5z"></path></g></g><g style="display: block;" transform="matrix(1,0,0,1,225,15)" opacity="1"><g opacity="1" transform="matrix(3,0,0,3,0,0)"><path fill="rgb(255,204,75)" fill-opacity="1" d=" M0,-5 C2.759500026702881,-5 5,-2.759500026702881 5,0 C5,2.759500026702881 2.759500026702881,5 0,5 C-2.759500026702881,5 -5,2.759500026702881 -5,0 C-5,-2.759500026702881 -2.759500026702881,-5 0,-5z"></path></g></g></g></g></svg>